<?xml version="1.0" encoding="UTF-8"?>
<svg width="186px" height="73px" viewBox="0 0 186 73" version="1.1" xmlns="http://www.w3.org/2000/svg" xmlns:xlink="http://www.w3.org/1999/xlink">
    <!-- Generator: Sketch 60 (88103) - https://sketch.com -->
    <title>шапка</title>
    <desc>Created with Sketch.</desc>
    <defs>
        <linearGradient x1="0%" y1="48.3879794%" x2="98.8839286%" y2="51.576038%" id="linearGradient-1">
            <stop stop-color="#7BF2E9" offset="0%"></stop>
            <stop stop-color="#63DBE3" offset="5.92115753%"></stop>
            <stop stop-color="#62CFE7" offset="11.8423151%"></stop>
            <stop stop-color="#73AFEB" offset="28.5288218%"></stop>
            <stop stop-color="#7BA1ED" offset="36.040435%"></stop>
            <stop stop-color="#9C63F5" offset="68.2537468%"></stop>
            <stop stop-color="#A362E9" offset="74.6029974%"></stop>
            <stop stop-color="#A961DD" offset="80.9522481%"></stop>
            <stop stop-color="#AE60D1" offset="87.3014987%"></stop>
            <stop stop-color="#B25FC6" offset="93.6507494%"></stop>
            <stop stop-color="#B65EBA" offset="100%"></stop>
        </linearGradient>
        <path d="M9.544,46.28 L9.544,38.72 L13.756,38.72 C19.408,38.72 23.944,35.696 23.944,29.864 C23.944,24.644 20.308,21.08 14.296,21.08 L4,21.08 L4,46.28 L9.544,46.28 Z M13.936,33.788 L9.544,33.788 L9.544,26.084 L13.828,26.084 C16.6,26.084 18.328,27.416 18.328,29.9 C18.328,32.132 16.708,33.788 13.936,33.788 Z M31.432,46.28 L31.432,36.164 L41.656,36.164 L41.656,46.28 L47.2,46.28 L47.2,21.08 L41.656,21.08 L41.656,31.052 L31.432,31.052 L31.432,21.08 L25.888,21.08 L25.888,46.28 L31.432,46.28 Z M56.632,46.28 L56.632,38.72 L60.844,38.72 C66.496,38.72 71.032,35.696 71.032,29.864 C71.032,24.644 67.396,21.08 61.384,21.08 L51.088,21.08 L51.088,46.28 L56.632,46.28 Z M61.024,33.788 L56.632,33.788 L56.632,26.084 L60.916,26.084 C63.688,26.084 65.416,27.416 65.416,29.9 C65.416,32.132 63.796,33.788 61.024,33.788 Z M81.94,46.64 C87.376,46.64 91.192,43.832 91.192,38.828 C91.192,34.364 88.312,32.528 83.2,31.196 C78.844,30.08 77.764,29.54 77.764,27.884 C77.764,26.588 78.88,25.616 81.004,25.616 C83.128,25.616 85.324,26.552 87.556,28.1 L90.436,23.924 C87.88,21.872 84.748,20.72 81.076,20.72 C75.928,20.72 72.256,23.744 72.256,28.316 C72.256,33.392 75.532,34.796 80.608,36.092 C84.82,37.172 85.684,37.892 85.684,39.296 C85.684,40.844 84.316,41.744 82.048,41.744 C79.168,41.744 76.792,40.556 74.524,38.684 L71.248,42.608 C74.272,45.308 78.124,46.64 81.94,46.64 Z M98.752,46.28 L98.752,35.516 C98.752,32.924 100.084,31.592 102.172,31.592 C104.26,31.592 105.484,32.924 105.484,35.516 L105.484,46.28 L110.956,46.28 L110.956,33.788 C110.956,29.36 108.544,26.624 104.404,26.624 C101.632,26.624 100.012,28.1 98.752,29.72 L98.752,20 L93.28,20 L93.28,46.28 L98.752,46.28 Z M123.016,46.712 C129.028,46.712 133.492,42.212 133.492,36.668 C133.492,31.052 129.064,26.624 123.088,26.624 C117.076,26.624 112.612,31.124 112.612,36.668 C112.612,42.284 117.04,46.712 123.016,46.712 Z M123.088,41.996 C120.064,41.996 118.012,39.512 118.012,36.668 C118.012,33.752 119.884,31.34 123.016,31.34 C126.04,31.34 128.092,33.824 128.092,36.668 C128.092,39.584 126.22,41.996 123.088,41.996 Z M140.764,52.04 L140.764,43.76 C142.06,45.308 143.86,46.64 146.776,46.64 C151.348,46.64 155.56,43.112 155.56,36.668 C155.56,30.152 151.276,26.624 146.776,26.624 C143.932,26.624 142.096,27.956 140.764,29.756 L140.764,26.984 L135.292,26.984 L135.292,52.04 L140.764,52.04 Z M145.372,41.996 C142.816,41.996 140.692,39.872 140.692,36.668 C140.692,33.392 142.816,31.268 145.372,31.268 C147.928,31.268 150.088,33.392 150.088,36.596 C150.088,39.908 147.928,41.996 145.372,41.996 Z M172.828,46.712 C178.3,46.712 182.44,43.148 182.44,38 C182.44,32.672 178.588,29.9 173.584,29.9 C171.1,29.9 169.624,30.692 168.364,31.52 C168.724,28.208 170.308,25.688 173.44,25.688 C175.6,25.688 176.932,26.444 178.588,27.704 L181.504,23.42 C179.272,21.656 177.04,20.648 173.62,20.648 C166.096,20.648 162.568,26.624 162.568,34.4 C162.568,39.476 163.72,42.176 165.556,44.012 C167.32,45.776 169.552,46.712 172.828,46.712 Z M172.612,41.96 C169.876,41.96 168.22,40.34 168.22,38.216 C168.22,36.02 169.804,34.508 172.54,34.508 C175.276,34.508 176.932,36.056 176.932,38.18 C176.932,40.412 175.348,41.96 172.612,41.96 Z" id="path-2"></path>
    </defs>
    <g id="Symbols" stroke="none" stroke-width="1" fill="none" fill-rule="evenodd">
        <g id="шапка" transform="translate(-116.000000, -97.000000)" fill-rule="nonzero">
            <g id="Group-11" transform="translate(116.000000, 97.000000)">
                <g id="Group-9">
                    <g id="PHPShop6">
                        <use fill="#FFFFFF" xlink:href="#path-2"></use>
                        <use fill="url(#linearGradient-1)" xlink:href="#path-2"></use>
                    </g>
                </g>
            </g>
        </g>
    </g>
</svg>